<svg xmlns="http://www.w3.org/2000/svg" width="237" height="80" fill="none"><path fill="#797979" d="M229.216 38.378c-.076-2.16-1.816-4.018-4.389-4.018-2.838 0-4.465 1.782-4.73 4.018h9.119zm-4.313-7.277c4.654 0 8.097 3.411 8.097 8.148 0 .341 0 .948-.076 1.213 0 .417-.416.758-.794.758h-12.336c0 2.388 2.233 4.813 5.336 4.813 2.081 0 3.292-.758 4.389-1.44.34-.265.681-.341 1.021.076l1.022 1.63c.341.34.416.682-.076 1.212-1.286 1.1-3.632 2.236-6.621 2.236-5.449 0-8.892-4.206-8.892-9.247.075-5.116 3.519-9.399 8.93-9.399zm-24.141 16.79c-.265-.152-.53-.531-.341-.948l.795-1.63c.189-.34.681-.53 1.135-.265 1.021.606 2.346 1.288 4.389 1.288 1.476 0 2.346-.682 2.346-1.705 0-1.213-1.362-1.97-3.784-3.07-2.762-1.213-4.843-2.653-4.843-5.571 0-2.236 1.551-4.813 5.865-4.813 2.497 0 4.313.758 5.184 1.288.416.341.605.872.34 1.289l-.605 1.213c-.265.53-.795.53-1.135.34-1.211-.53-2.422-.87-3.784-.87-1.552 0-2.233.757-2.233 1.553 0 1.1 1.287 1.781 3.027 2.577 3.292 1.364 5.79 2.577 5.79 5.837 0 2.728-2.422 5.154-6.395 5.154-2.724.114-4.692-.986-5.751-1.668zm-12.487-1.365c1.816 0 3.632-1.289 4.124-2.122v-2.919c-.265-.19-1.627-.606-3.292-.606-2.081 0-3.708 1.1-3.708 2.918.114 1.516 1.06 2.729 2.876 2.729zm.605-8.49c1.817 0 3.633.531 3.633.531.075-2.842-.606-4.017-2.838-4.017-2.081 0-4.049.606-4.995.872-.53.075-.87-.266-1.021-.758l-.341-1.44c-.076-.607.189-.872.605-1.024.341-.076 2.838-1.023 6.13-1.023 5.676 0 6.206 3.41 6.206 7.807v9.437a.97.97 0 0 1-.871.872h-1.286c-.341 0-.53-.152-.681-.607l-.416-1.213a7.875 7.875 0 0 1-5.525 2.236c-3.367 0-5.789-2.236-5.789-5.912.038-3.297 2.611-5.76 7.189-5.76zm-16.724-6.935c2.762 0 4.843 1.023 6.47 3.07.341.417.265.947-.189 1.288l-1.362 1.289c-.53.417-.871.076-1.136-.19-.756-.871-2.232-1.78-3.708-1.78-3.027 0-5.448 2.5-5.448 5.57 0 3.184 2.346 5.647 5.259 5.647 2.346 0 3.292-1.288 4.238-2.236.341-.34.795-.34 1.211-.075l1.211.947c.416.341.605.758.34 1.288-1.475 2.237-3.859 3.677-7 3.677-4.995 0-9.157-3.942-9.157-9.248.114-5.154 4.352-9.247 9.271-9.247zm-17.406-7.92c0-.418.34-.873.87-.873h2.157c.454.038.832.38.87.872v25.203a.97.97 0 0 1-.87.872h-2.157a.857.857 0 0 1-.87-.872V23.18zm-9.498 0c0-.418.341-.873.871-.873h2.156c.455.038.833.38.871.872v25.203a.97.97 0 0 1-.871.872h-2.156a.858.858 0 0 1-.871-.872V23.18zm-13.281 23.345c1.816 0 3.633-1.289 4.124-2.122v-2.919c-.264-.19-1.627-.606-3.292-.606-2.081 0-3.708 1.1-3.708 2.918.038 1.516.984 2.729 2.876 2.729zm.53-8.49c1.816 0 3.632.531 3.632.531.076-2.842-.605-4.017-2.838-4.017-2.081 0-4.048.606-4.994.872-.53.075-.871-.266-1.022-.758l-.341-1.44c-.075-.607.19-.872.606-1.024.34-.076 2.838-1.023 6.13-1.023 5.676 0 6.281 3.41 6.281 7.807v9.437a.97.97 0 0 1-.87.872h-1.287c-.34 0-.53-.152-.757-.607l-.416-1.213a7.873 7.873 0 0 1-5.524 2.236c-3.368 0-5.79-2.236-5.79-5.912 0-3.297 2.611-5.76 7.19-5.76zm-37.952-5.684c0-.417.34-.872.87-.872h.87c.416 0 .681.152.795.53l.53 1.555c.34-.417 2.232-2.502 5.675-2.502 2.573 0 4.125 1.023 5.449 2.843.53-.531 2.573-2.843 6.016-2.843 5.449 0 6.811 3.752 6.811 8.414v8.906a.88.88 0 0 1-.87.872h-2.157c-.529 0-.87-.341-.87-.872v-9.096c0-2.842-1.135-4.548-3.519-4.548-2.686 0-3.973 1.782-4.314 2.047.076.341.19 1.44.19 2.387v9.172c0 .417-.341.872-.757.872h-2.308c-.53 0-.871-.341-.871-.872V39.25c0-2.918-1.021-4.547-3.519-4.547-2.686 0-4.048 1.97-4.237 2.577v11.066a.97.97 0 0 1-.87.872h-2.157a.857.857 0 0 1-.87-.872V32.314h.113v.038zM78.24 47.89c-.265-.151-.53-.53-.34-.947l.756-1.63c.19-.34.682-.53 1.136-.265 1.021.606 2.346 1.288 4.389 1.288 1.476 0 2.346-.682 2.346-1.705 0-1.213-1.362-1.97-3.784-3.07-2.762-1.213-4.843-2.653-4.843-5.571 0-2.236 1.551-4.813 5.865-4.813 2.497 0 4.313.758 5.184 1.288.416.341.605.872.34 1.289l-.605 1.213c-.265.53-.757.53-1.135.34-1.211-.53-2.422-.87-3.784-.87-1.552 0-2.233.757-2.233 1.553 0 1.1 1.287 1.781 3.027 2.577 3.292 1.364 5.79 2.577 5.79 5.837 0 2.728-2.422 5.154-6.395 5.154-2.687.114-4.654-.986-5.714-1.668zm-47.6-29.03 9.913 4.775c.492.227.681.834.454 1.326-.076.19-.265.341-.454.455l-9.611 4.89a.972.972 0 0 1-.908 0L20.12 25.53c-.492-.228-.68-.834-.454-1.327.076-.189.265-.34.454-.454l9.611-4.89c.303-.15.643-.15.908 0zm.075 18.191 23.46-11.938c.492-.265.681-.834.416-1.326a.96.96 0 0 0-.454-.417L30.904 12.114c-.265-.152-.605-.152-.908 0L6.536 24.052c-.492.265-.68.834-.416 1.326.113.19.265.341.454.455l23.27 11.218c.266.114.606.114.871 0zm19.714 8.603a12.146 12.146 0 0 1-5.94 9.892c-3.255 1.667-5.904-.038-5.904-3.828a12.145 12.145 0 0 1 5.941-9.892c3.254-1.667 5.903.038 5.903 3.828zm6.924 10.233V29.32c0-.53-.454-.986-1.021-.986a1 1 0 0 0-.454.114L32.19 40.576c-.34.151-.53.492-.53.871v26.568c0 .53.454.985 1.022.985.151 0 .302-.038.454-.114l23.687-12.09c.34-.189.53-.53.53-.909zm-36.59 2.35-10.67-5.117c-.492-.227-.681-.833-.454-1.326.038-.038.038-.076.076-.114l5.335-7.845c.303-.455.946-.568 1.4-.265.151.114.303.265.378.455l5.335 12.961a.972.972 0 0 1-.491 1.289c-.341.113-.644.113-.909-.038z"/></svg>